<svg width="102" height="34" xmlns="http://www.w3.org/2000/svg" viewBox="0 0 102 34">
<path class="footer-logo" d="M5,31.2C5,27,4.6,23,4.5,18.9c0-0.4,0-0.8,0-1.2c0,0.1,0.1,0.2,0.1,0.5c0.6,1.7,1.3,3.2,2.1,4.6c0.8,1.4,1.3,3.1,1.8,4.6
	c-0.2,0.2-0.4,0.5-0.2,0.7c0,0.2,0.1,0.2,0.2,0.4c0.6,0.6,1.8,0.2,2.5,0c0.2-0.1,0.6-0.2,0.8-0.5c0.4-0.2,0.8-0.7,0.7-1.2
	c0-0.1,0-0.2-0.1-0.2c0.5-1.3,0.7-2.6,1-3.9c0.2-1.4,0.8-2.7,1.3-4.2c0,0.6,0.1,1.2,0.1,1.9c0.2,2.5,0,5.1,0,7.6
	c0,0.8,0,1.7,0.2,2.5c0.1,0.4,0.4,1.8,0.2,1.9c-0.6,0.6-0.5,1.3,0.4,1.4c1,0.2,2.1-0.1,2.7-0.7c1.2-1.1,0.6-2.8,0.4-4.3
	c-0.5-2.4,0.1-5,0-7.4c-0.1-2.7-0.5-5.3-0.5-8.1c0-2.1,0.4-4.4-0.4-6.5c0-0.2,0.1-0.5,0.1-0.7c0.2-1.1-3.3-0.5-3.8,0.5
	c0,0.4-0.1,0.7,0,0.9c0,0.1,0.1,0.1,0.1,0.2c-0.7,3.2-1.5,6.3-2.6,9.4c-0.4,1.2-0.8,2.4-1.3,3.6c-0.6-1.1-1.2-2.3-1.7-3.3
	C7.4,14,6.2,10.6,4.5,7.2c0.2-1.5-3.2-1.3-3.9,0.1c-0.7,1.7-0.7,3.3-0.4,5.1c0.4,2,0.4,4,0.4,6c0,3.9,0.4,7.9,0.5,11.9
	c-0.4,0.4-0.5,0.8-0.1,1.4c0.1,0.2,0.4,0.4,0.6,0.6C2.4,33.2,5,32.6,5,31.2z"/>
<path class="footer-logo" d="M26.7,9.4c-0.1-0.7-4.1,0.1-3.9,1.1c0.4,2.1,0.2,4.3,0.1,6.4c0,2,0.5,3.9,0.7,5.9s-0.1,4.2,0.1,6.2c0.1,0.9,0.7,2.7,0.1,3.6
	c-0.5,0.5,1.4,0.4,1.5,0.4c0.7-0.1,1.8-0.4,2.3-1.1c0.7-0.8,0.2-2.4,0-3.3c-0.4-2-0.1-4.2-0.2-6.3c-0.1-2-0.7-3.9-0.8-5.8
	C26.8,14,27,11.7,26.7,9.4z"/>
<path class="footer-logo" d="M30.4,17.3c1.1,3,5.5,1.5,7.9,1.8c3.8,0.2,2.7,5.5,2.7,7.8c0,1.3,1.2,3.4,0.2,4.5c-0.6,0.7-2,0.7-2.9,0.7
	c-0.8,0.1-2.3,0.4-2.7-0.5c-1-1.4,0.1-3.8-0.1-5.5c-0.1-0.9-4.1-0.1-3.9,1.1c0.4,2.6-1.4,6.2,2.4,6.6c2.5,0.2,5.2-0.1,7.5-0.9
	c1.2-0.4,2.3-0.9,3.2-1.8c1.1-0.9,0.7-2.4,0.5-3.6c-0.7-3,0.7-6.3-1.2-8.9c-2-2.7-6-0.8-8.6-1.5C34,16.8,34,14.9,34,13.8
	c0-1.4-0.1-2.7-0.2-4.2c-0.1-1.1,0-2.1,0.7-2.8c0.1-0.1,0.8-0.4,0.8-0.4c0.4-0.1,0.7-0.1,1.1-0.1c1.5-0.1,4.6,0.2,4.1,2.5
	c-0.2,1.1,3.6,0.5,3.9-0.6c1.2-4.6-7.3-3.7-9.8-3.1c-2.3,0.6-4.6,1.9-4.8,4.4c-0.1,1.2,0.2,2.4,0.4,3.6
	C30.1,14.6,29.9,15.9,30.4,17.3z"/>
<path class="footer-logo" d="M47.6,19.5c-0.1,2.1-0.2,4.3-0.2,6.4c0,1.1,0.1,2.1,0.4,3.3c0.1,0.9,0.5,2.4,0.2,3.3c-0.2,0.7,3.6,0.2,3.9-0.7
	c0.6-1.8-0.2-4-0.4-5.8s0-3.4,0.1-5.2c2-0.1,4.1-0.2,6.1,0c0.1,1.4,0.2,2.7,0.4,4.2c0.1,1.2,0.2,2.3,0.2,3.4c0,1.1,0.1,2.5-0.2,3.4
	c-0.8,2,3.2,1.9,3.7,0.4c0.7-1.9,0.5-4.2,0.4-6.2c-0.1-2.5-0.5-4.9-0.6-7.4c-0.1-3.8-0.7-7.5-0.7-11.3c0-2-3.9-1.3-3.9,0.4
	c0,3.6,0.5,7.1,0.7,10.8c0,0.1,0,0.1,0,0.2c-1.9,0-3.9,0.1-5.8,0.2c0.2-4.6-0.6-9.3-0.5-13.9c0-0.6-3.9-0.1-3.9,1.1
	C46.9,10.6,47.8,15.1,47.6,19.5z"/>
<path class="footer-logo" d="M64.3,25.9c-0.4,0.4-0.2,0.5,0,0.6c0,1.8-0.1,3.4-0.2,5.2c-0.5,0.7,0.5,1.2,1.1,1.2h0.1c0.7,0,2.6-0.4,2.7-1.3
	c0.2-2.1,0.2-4.2,0.2-6.3c1.5-1.7,2.9-3.7,4.1-5.6c0.7,1.4,1.4,3,2,4.6c0.8,2.7,2.3,5.2,3.1,8.1c0.6,1.8,4.5,0.7,3.9-1.1
	c-0.8-2.7-2.3-5.3-3.1-8.1c-1-2.7-2.4-5.2-3.6-7.8c1-1.9,2-3.9,3-5.9c0.8-1.8,1.4-3.8,3.1-5.1c0.6-0.5,0.6-0.9-0.2-0.9
	c-0.8-0.1-2,0.2-2.7,0.7c-1.4,1.2-2.4,2.6-3.2,4.3c-1,2-1.9,4-3,6c-0.1,0.1-0.1,0.2-0.2,0.5c-0.5,0.4-0.8,0.7-0.6,1.3
	c-0.8,1.5-1.5,3.1-2.5,4.6c-0.4-5.6-1-11-1.2-16.6c0-1.3-3.9-0.5-3.9,1.1C63.4,12.1,64.3,19,64.3,25.9
	C64.4,25.9,64.3,25.9,64.3,25.9z"/>
<path class="footer-logo" d="M102,18.5c-0.2-0.8-1.4-0.8-2.3-0.7c0-0.4,0-0.7,0-0.9c-0.1-2.6-0.1-5.3-0.4-8.1c-0.4-2.5-1.7-3.4-4.1-3.3
	c-2.4,0.1-5.2,0.5-7.5,1.4c-2.6,1.1-4.1,3-4.5,5.7c-0.6,3,0.2,6.2,0.4,9.3c0.1,3.6,0.1,7,0.1,10.6c0,0.6,3.9,0,3.9-1.1
	c0-2.7,0-5.6,0-8.3c0-0.8,0-1.7-0.1-2.5c1.4-0.6,3.7,0,5.1,0.1c1.1,0.1,2.1-0.1,3.2-0.2c0,2.3,0.1,4.6,0.2,7c0,1.2,0.5,3.6-0.4,4.5
	c-0.5,0.5,1.4,0.4,1.5,0.4c0.8-0.1,1.8-0.4,2.3-1.1c1-1.1,0.5-3.8,0.4-5.1c-0.1-1.9-0.1-3.8-0.1-5.7C100.9,20,102.2,19.3,102,18.5z
	 M94,18.3c-2.3,0-4.5-0.4-6.8,0c-0.1-1.3-0.2-2.5-0.4-3.8c-0.1-2.4,0.1-5.6,2.3-7c0.6-0.4,1.7-0.4,2.4-0.5c1-0.1,1.9-0.4,2.9,0.2
	c1.2,0.8,1,3.7,1,4.9c0,2,0.2,4,0.4,6C95.2,18.3,94.6,18.3,94,18.3z"/>
<path class="footer-logo" d="M22.3,4.9c0,0.2,0,0.5,0.1,0.6v0.1c0,0.1,0,0.2,0,0.4c0.1,0.2,0.2,0.4,0.5,0.5c0.4,0.2,0.8,0.2,1.3,0.2s1.1-0.2,1.4-0.5
	c0.1-0.1,0.1-0.1,0.2-0.2c0.5-0.4,1-0.8,0.7-1.3c-0.4-1.2-0.4-2.3-0.4-3.4c0-0.9-1-1.3-1.8-1.2c-0.7,0.1-2.1,0.6-2.1,1.5
	s-0.1,2,0.1,3C22.3,4.6,22.3,4.7,22.3,4.9z"/>
</svg>
