<svg xmlns="http://www.w3.org/2000/svg" viewBox="0 0 54.1 23.2"><defs><style>.a{fill:#63d1bb;}</style></defs><title>icon-feature-4</title><path class="a" d="M40.3,5.7A46.26,46.26,0,0,0,28,4a43.78,43.78,0,0,0-7.7.6L13.5,0H0L5.8,6.2h8.4A22.52,22.52,0,0,0,7.5,9.7v3.8A24,24,0,0,0,14.4,17H5.8L0,23.2H13.5l6.8-4.7a44.59,44.59,0,0,0,7.7.6,47.63,47.63,0,0,0,12.4-1.7,10.36,10.36,0,0,1-1.9-5.9A9.69,9.69,0,0,1,40.3,5.7Z"/><path class="a" d="M43.7,6.7a7.7,7.7,0,0,0-2,4.8,7.7,7.7,0,0,0,2,4.8,51.67,51.67,0,0,0,10.4-4.8A51.67,51.67,0,0,0,43.7,6.7Z"/></svg>