<svg xmlns="http://www.w3.org/2000/svg" viewBox="0 0 32.7 32.5"><defs><style>.a{fill:#63d1bb;}</style></defs><title>icon-feature-6</title><path class="a" d="M2.9,32.5H15.4V18.6H2.9ZM31.1,8.9H23.8c.5-.3,1-.5,1.4-.8a5,5,0,0,0,2.4-4,3.86,3.86,0,0,0-1.4-2.9,4.62,4.62,0,0,0-3-1.1,5.46,5.46,0,0,0-3.3,1.1,10.43,10.43,0,0,0-3.4,4.1.35.35,0,0,1-.1.2,16.18,16.18,0,0,0-1-1.8,8.51,8.51,0,0,0-2.5-2.5A5.64,5.64,0,0,0,9.5,0,4.63,4.63,0,0,0,6.3,1.3,4.48,4.48,0,0,0,4.9,4.4a4.56,4.56,0,0,0,.6,2.2A7.81,7.81,0,0,0,8.2,8.9H1.6A1.58,1.58,0,0,0,0,10.5v5.9H15.4V8.9h1.9v7.5H32.7V10.5a1.58,1.58,0,0,0-1.6-1.6M8.7,6.5A4.41,4.41,0,0,1,7.5,5.4a2.24,2.24,0,0,1-.3-1,2.08,2.08,0,0,1,.7-1.5,2.36,2.36,0,0,1,1.6-.7h0a3.06,3.06,0,0,1,2,.7,8.34,8.34,0,0,1,2.6,3.2,18,18,0,0,1,.8,2.1c-3-.3-5-.9-6.2-1.7M19.3,4.9A6.85,6.85,0,0,1,21.2,3a3.46,3.46,0,0,1,2-.7h0a2,2,0,0,1,1.5.6,1.43,1.43,0,0,1,.6,1.2c0,.5-.3,1.3-1.5,2.1a16.06,16.06,0,0,1-6.1,2.3,9,9,0,0,1,1.6-3.6m-2,27.6H29.8V18.6H17.3Z"/></svg>