<svg xmlns="http://www.w3.org/2000/svg" viewBox="0 0 102.01 33.78"><title>logo-footer</title><path d="M5,31.2C5,27,4.6,23,4.5,18.9V17.7a2,2,0,0,1,.1.5,27.84,27.84,0,0,0,2.1,4.6,25.81,25.81,0,0,1,1.8,4.6c-.2.2-.4.5-.2.7,0,.2.1.2.2.4.6.6,1.8.2,2.5,0a1.77,1.77,0,0,0,.8-.5,1.21,1.21,0,0,0,.7-1.2c0-.1,0-.2-.1-.2a27.92,27.92,0,0,0,1-3.9,25.09,25.09,0,0,1,1.3-4.2c0,.6.1,1.2.1,1.9.2,2.5,0,5.1,0,7.6a10.55,10.55,0,0,0,.2,2.5c.1.4.4,1.8.2,1.9-.6.6-.5,1.3.4,1.4a3.12,3.12,0,0,0,2.7-.7c1.2-1.1.6-2.8.4-4.3-.5-2.4.1-5,0-7.4-.1-2.7-.5-5.3-.5-8.1,0-2.1.4-4.4-.4-6.5,0-.2.1-.5.1-.7.2-1.1-3.3-.5-3.8.5,0,.4-.1.7,0,.9s.1.1.1.2a77,77,0,0,1-2.6,9.4c-.4,1.2-.8,2.4-1.3,3.6-.6-1.1-1.2-2.3-1.7-3.3A86.9,86.9,0,0,0,4.5,7.2c.2-1.5-3.2-1.3-3.9.1a8.87,8.87,0,0,0-.4,5.1,30.27,30.27,0,0,1,.4,6c0,3.9.4,7.9.5,11.9A1,1,0,0,0,1,31.7c.1.2.4.4.6.6C2.4,33.2,5,32.6,5,31.2Z" transform="translate(-0.01 -0.08)"/><path d="M26.7,9.4c-.1-.7-4.1.1-3.9,1.1a27.41,27.41,0,0,1,.1,6.4,59.28,59.28,0,0,0,.7,5.9c.2,2-.1,4.2.1,6.2.1.9.7,2.7.1,3.6-.5.5,1.4.4,1.5.4a3.57,3.57,0,0,0,2.3-1.1c.7-.8.2-2.4,0-3.3-.4-2-.1-4.2-.2-6.3s-.7-3.9-.8-5.8A33.88,33.88,0,0,0,26.7,9.4Z" transform="translate(-0.01 -0.08)"/><path d="M30.4,17.3c1.1,3,5.5,1.5,7.9,1.8,3.8.2,2.7,5.5,2.7,7.8,0,1.3,1.2,3.4.2,4.5-.6.7-2,.7-2.9.7s-2.3.4-2.7-.5c-1-1.4.1-3.8-.1-5.5-.1-.9-4.1-.1-3.9,1.1.4,2.6-1.4,6.2,2.4,6.6a18.9,18.9,0,0,0,7.5-.9,7.82,7.82,0,0,0,3.2-1.8c1.1-.9.7-2.4.5-3.6-.7-3,.7-6.3-1.2-8.9s-6-.8-8.6-1.5C34,16.8,34,14.9,34,13.8c0-1.4-.1-2.7-.2-4.2a3.34,3.34,0,0,1,.7-2.8,5.9,5.9,0,0,1,.8-.4,4.1,4.1,0,0,1,1.1-.1c1.5-.1,4.6.2,4.1,2.5-.2,1.1,3.6.5,3.9-.6,1.2-4.6-7.3-3.7-9.8-3.1C32.3,5.7,30,7,29.8,9.5a14.72,14.72,0,0,0,.4,3.6A9.87,9.87,0,0,0,30.4,17.3Z" transform="translate(-0.01 -0.08)"/><path d="M47.6,19.5c-.1,2.1-.2,4.3-.2,6.4a12.93,12.93,0,0,0,.4,3.3c.1.9.5,2.4.2,3.3-.2.7,3.6.2,3.9-.7.6-1.8-.2-4-.4-5.8a30.12,30.12,0,0,1,.1-5.2,41.4,41.4,0,0,1,6.1,0c.1,1.4.2,2.7.4,4.2.1,1.2.2,2.3.2,3.4a12.46,12.46,0,0,1-.2,3.4c-.8,2,3.2,1.9,3.7.4.7-1.9.5-4.2.4-6.2-.1-2.5-.5-4.9-.6-7.4-.1-3.8-.7-7.5-.7-11.3,0-2-3.9-1.3-3.9.4,0,3.6.5,7.1.7,10.8v.2c-1.9,0-3.9.1-5.8.2.2-4.6-.6-9.3-.5-13.9,0-.6-3.9-.1-3.9,1.1C46.9,10.6,47.8,15.1,47.6,19.5Z" transform="translate(-0.01 -0.08)"/><path d="M64.3,25.9c-.4.4-.2.5,0,.6,0,1.8-.1,3.4-.2,5.2-.5.7.5,1.2,1.1,1.2h.1c.7,0,2.6-.4,2.7-1.3.2-2.1.2-4.2.2-6.3a44.64,44.64,0,0,0,4.1-5.6,48.93,48.93,0,0,1,2,4.6c.8,2.7,2.3,5.2,3.1,8.1.6,1.8,4.5.7,3.9-1.1-.8-2.7-2.3-5.3-3.1-8.1-1-2.7-2.4-5.2-3.6-7.8,1-1.9,2-3.9,3-5.9.8-1.8,1.4-3.8,3.1-5.1.6-.5.6-.9-.2-.9a4.39,4.39,0,0,0-2.7.7,12.43,12.43,0,0,0-3.2,4.3c-1,2-1.9,4-3,6-.1.1-.1.2-.2.5-.5.4-.8.7-.6,1.3a52,52,0,0,1-2.5,4.6c-.4-5.6-1-11-1.2-16.6,0-1.3-3.9-.5-3.9,1.1.2,6.7,1.1,13.6,1.1,20.5Z" transform="translate(-0.01 -0.08)"/><path d="M102,18.5c-.2-.8-1.4-.8-2.3-.7v-.9c-.1-2.6-.1-5.3-.4-8.1-.4-2.5-1.7-3.4-4.1-3.3a24.26,24.26,0,0,0-7.5,1.4,7,7,0,0,0-4.5,5.7c-.6,3,.2,6.2.4,9.3.1,3.6.1,7,.1,10.6,0,.6,3.9,0,3.9-1.1V23.1a20.9,20.9,0,0,0-.1-2.5c1.4-.6,3.7,0,5.1.1a17.2,17.2,0,0,0,3.2-.2c0,2.3.1,4.6.2,7,0,1.2.5,3.6-.4,4.5-.5.5,1.4.4,1.5.4a3.36,3.36,0,0,0,2.3-1.1c1-1.1.5-3.8.4-5.1-.1-1.9-.1-3.8-.1-5.7C100.9,20,102.2,19.3,102,18.5Zm-8-.2c-2.3,0-4.5-.4-6.8,0-.1-1.3-.2-2.5-.4-3.8-.1-2.4.1-5.6,2.3-7A6.44,6.44,0,0,1,91.5,7c1-.1,1.9-.4,2.9.2,1.2.8,1,3.7,1,4.9,0,2,.2,4,.4,6A5.54,5.54,0,0,1,94,18.3Z" transform="translate(-0.01 -0.08)"/><path d="M22.3,4.9c0,.2,0,.5.1.6V6a.82.82,0,0,0,.5.5,2.74,2.74,0,0,0,1.3.2,2.17,2.17,0,0,0,1.4-.5l.2-.2c.5-.4,1-.8.7-1.3a10.19,10.19,0,0,1-.4-3.4c0-.9-1-1.3-1.8-1.2s-2.1.6-2.1,1.5a15.31,15.31,0,0,0,.1,3Z" transform="translate(-0.01 -0.08)"/></svg>