<svg xmlns="http://www.w3.org/2000/svg" viewBox="0 0 85.62 34.92"><title>logo-mobile</title><path d="M4.2,26.3c0-3.5-.3-6.9-.4-10.4v-1c0,.1.1.2.1.4a23.22,23.22,0,0,0,1.8,3.9,18.48,18.48,0,0,1,1.5,3.9c-.2.2-.3.4-.2.6s.1.2.2.3c.5.5,1.5.2,2.1,0a2.51,2.51,0,0,0,.7-.4c.3-.2.7-.6.6-1,0-.1,0-.2-.1-.2a19.81,19.81,0,0,0,.8-3.3,23.55,23.55,0,0,1,1.1-3.5c0,.5.1,1,.1,1.6.2,2.1,0,4.3,0,6.4a7.49,7.49,0,0,0,.2,2.1,5,5,0,0,1,.2,1.6c-.5.5-.4,1.1.3,1.2a2.64,2.64,0,0,0,2.3-.6c1-.9.5-2.4.3-3.6-.4-2,.1-4.2,0-6.2-.1-2.3-.4-4.5-.4-6.8,0-1.8.3-3.7-.3-5.5,0-.2.1-.4.1-.6.2-.9-2.8-.4-3.2.4,0,.3-.1.6,0,.8s.1.1.1.2a71,71,0,0,1-2.2,7.9c-.3,1-.7,2-1.1,3-.5-.9-1-1.9-1.4-2.8C6.2,11.8,5.2,8.9,3.8,6.1,4,4.8,1.1,5,.5,6.2a7,7,0,0,0-.3,4.3,29.11,29.11,0,0,1,.3,5.1c0,3.3.3,6.7.4,10a.9.9,0,0,0-.1,1.2c.1.2.3.3.5.5C2,28,4.2,27.5,4.2,26.3Z" transform="translate(0 0.02)"/><path d="M22.4,7.9c-.1-.6-3.4.1-3.3.9a24.39,24.39,0,0,1,.1,5.4,42.61,42.61,0,0,0,.6,5c.2,1.7-.1,3.5.1,5.2.1.8.6,2.3.1,3-.4.4,1.2.3,1.3.3a2.84,2.84,0,0,0,1.9-.9c.6-.7.2-2,0-2.8a46.08,46.08,0,0,1-.2-5.3c-.1-1.7-.6-3.3-.7-4.9A23.31,23.31,0,0,0,22.4,7.9Z" transform="translate(0 0.02)"/><path d="M25.5,14.6c.9,2.5,4.6,1.3,6.6,1.5,3.2.2,2.3,4.6,2.3,6.6,0,1.1,1,2.9.2,3.8-.5.6-1.7.6-2.4.6s-1.9.3-2.3-.4c-.8-1.2.1-3.2-.1-4.6-.1-.8-3.4-.1-3.3.9.3,2.2-1.2,5.2,2,5.6a14.81,14.81,0,0,0,6.3-.8,7.2,7.2,0,0,0,2.7-1.5c.9-.8.6-2,.4-3-.6-2.5.6-5.3-1-7.5s-5-.7-7.2-1.3c-1.2-.3-1.2-1.9-1.2-2.9,0-1.2-.1-2.3-.2-3.5a2.85,2.85,0,0,1,.6-2.4,3.63,3.63,0,0,1,.7-.3,2.77,2.77,0,0,1,.9-.1c1.3-.1,3.9.2,3.4,2.1-.2.9,3,.4,3.3-.5,1-3.9-6.1-3.1-8.2-2.6-1.9.5-3.9,1.6-4,3.7a15.26,15.26,0,0,0,.3,3A10.77,10.77,0,0,0,25.5,14.6Z" transform="translate(0 0.02)"/><path d="M40,16.4c-.1,1.8-.2,3.6-.2,5.4a14.07,14.07,0,0,0,.3,2.8,8.83,8.83,0,0,1,.2,2.8c-.2.6,3,.2,3.3-.6.5-1.5-.2-3.4-.3-4.9a32.33,32.33,0,0,1,.1-4.4,29,29,0,0,1,5.1,0c.1,1.2.2,2.3.3,3.5a28.25,28.25,0,0,1,.2,2.9,9.25,9.25,0,0,1-.2,2.9c-.7,1.7,2.7,1.6,3.1.3a13,13,0,0,0,.3-5.2c-.1-2.1-.4-4.1-.5-6.2-.1-3.2-.6-6.3-.6-9.5,0-1.7-3.3-1.1-3.3.3,0,3,.4,6,.6,9.1v.2c-1.6,0-3.3.1-4.9.2.2-3.9-.5-7.8-.4-11.7,0-.5-3.3-.1-3.3.9C39.4,8.9,40.1,12.7,40,16.4Z" transform="translate(0 0.02)"/><path d="M54,21.8c-.3.3-.2.4,0,.5,0,1.5-.1,2.9-.2,4.4-.4.6.4,1,.9,1h.1c.6,0,2.2-.3,2.3-1.1a47,47,0,0,0,.2-5.3,31.2,31.2,0,0,0,3.4-4.7,35.17,35.17,0,0,1,1.7,3.9c.7,2.3,1.9,4.4,2.6,6.8.5,1.5,3.8.6,3.3-.9-.7-2.3-1.9-4.5-2.6-6.8s-2-4.4-3-6.6c.8-1.6,1.7-3.3,2.5-5,.7-1.5,1.2-3.2,2.6-4.3.5-.4.5-.8-.2-.8a3.79,3.79,0,0,0-2.3.6,10.67,10.67,0,0,0-2.7,3.6c-.8,1.7-1.6,3.4-2.5,5.1-.1.1-.1.2-.2.4-.4.3-.7.6-.5,1.1-.7,1.3-1.3,2.6-2.1,3.9-.3-4.7-.8-9.3-1-14,0-1.1-3.3-.4-3.3.9.2,5.7,1,11.5,1,17.3Z" transform="translate(0 0.02)"/><path d="M85.6,15.6c-.2-.7-1.2-.7-1.9-.6v-.8c-.1-2.2-.1-4.5-.3-6.8C83.1,5.3,82,4.5,80,4.6a19.54,19.54,0,0,0-6.3,1.2,5.91,5.91,0,0,0-3.8,4.8c-.5,2.5.2,5.2.3,7.8.1,3,.1,5.9.1,8.9,0,.5,3.3,0,3.3-.9v-7a14.77,14.77,0,0,0-.1-2.1c1.2-.5,3.1,0,4.3.1a12.29,12.29,0,0,0,2.7-.2c0,1.9.1,3.9.2,5.9,0,1,.4,3-.3,3.8-.4.4,1.2.3,1.3.3a2.65,2.65,0,0,0,1.9-.9c.8-.9.4-3.2.3-4.3-.1-1.6-.1-3.2-.1-4.8C84.7,16.9,85.8,16.3,85.6,15.6Zm-6.7-.2a36.16,36.16,0,0,0-5.7,0c-.1-1.1-.2-2.1-.3-3.2-.1-2,.1-4.7,1.9-5.9a6.47,6.47,0,0,1,2-.4,3.34,3.34,0,0,1,2.4.2c1,.7.8,3.1.8,4.1,0,1.7.2,3.4.3,5.1A6.15,6.15,0,0,1,78.9,15.4Z" transform="translate(0 0.02)"/><path d="M18.7,4.1a.75.75,0,0,0,.1.5V5a.78.78,0,0,0,.4.4,2,2,0,0,0,1.1.2,2.45,2.45,0,0,0,1.2-.4l.2-.2c.4-.3.8-.7.6-1.1A9.55,9.55,0,0,1,22,1c0-.8-.8-1.1-1.5-1s-1.8.5-1.8,1.3a10.48,10.48,0,0,0,.1,2.5A.37.37,0,0,0,18.7,4.1Z" transform="translate(0 0.02)"/><path d="M80.3,33.3a20.89,20.89,0,0,0-4.9-.8l-4.9-.6c-1.6.1-3.3,0-5,.1l-4.9.3c-6.5.3-13,.3-19.5.1s-13-.5-19.6-.5c-3.3,0-6.6.1-9.9.2-1.6.3-3.2.5-4.9.9a25.57,25.57,0,0,1-4.8,1,20.71,20.71,0,0,0,5,.3c1.6,0,3.2.1,4.9.2,3.2-.2,6.5-.2,9.7-.2,6.5,0,13,.3,19.6.5s13.1.2,19.7-.1l4.9-.3c1.6-.1,3.2-.1,4.8-.1s3.3-.3,4.9-.5a27.15,27.15,0,0,1,4.9-.5h.1v-.6A1.76,1.76,0,0,0,80.3,33.3Z" transform="translate(0 0.02)"/></svg>