<?xml version="1.0" encoding="utf-8"?>
<!-- Generator: Adobe Illustrator 21.0.2, SVG Export Plug-In . SVG Version: 6.00 Build 0)  -->
<svg version="1.1" id="Money" xmlns="http://www.w3.org/2000/svg" xmlns:xlink="http://www.w3.org/1999/xlink" x="0px" y="0px"
	 viewBox="0 0 46.6 27.3" style="enable-background:new 0 0 46.6 27.3;" xml:space="preserve">
<style type="text/css">
	.st0{fill:#63D1BB;}
</style>
<path class="st0" d="M42.7,0H3.9C1.7,0,0,1.7,0,3.9v19.5c0,2.2,1.7,3.9,3.9,3.9h38.8c2.2,0,3.9-1.7,3.9-3.9V3.9
	C46.6,1.7,44.8,0,42.7,0z M3,24.9V2.7h40.2v22.2H3z"/>
<path class="st0" d="M6.9,21h32.4V6.6H6.9V21z M23.3,8.5c2.9,0,5.3,2.4,5.3,5.3c0,2.9-2.4,5.3-5.3,5.3S18,16.8,18,13.8
	C18,10.9,20.4,8.5,23.3,8.5z"/>
</svg>
