<svg xmlns="http://www.w3.org/2000/svg" viewBox="0 0 24.8 24.3"><defs><style>.a{fill:#ccc;}</style></defs><title>icon-phone</title><path class="a" d="M23.9,31.2H22.8a17.37,17.37,0,0,1-11.1-5.8A19.48,19.48,0,0,1,6.6,13.7V12.3a3.09,3.09,0,0,1,1.1-2.1,4.9,4.9,0,0,1,2.5-1.6,3.13,3.13,0,0,1,2.2,1.1,7.52,7.52,0,0,1,.8,2.4,8.57,8.57,0,0,1,.5,2.7c-.2,1.2-1.8,1.7-2.2,2.6A16.47,16.47,0,0,0,19,25.7c.8-.5,1.6-1.9,2.8-1.9a7,7,0,0,1,1.4.3,5,5,0,0,1,1.3.5c.7.3,2,.6,2.4,1.2a3.68,3.68,0,0,1,.6,2.2C27.2,29.3,25.1,30.7,23.9,31.2Z" transform="translate(-6.6 -6.9)"/><path class="a" d="M19.1,8.4A10.82,10.82,0,0,1,29.9,19.2h1.5A12.29,12.29,0,0,0,19.1,6.9Z" transform="translate(-6.6 -6.9)"/><path class="a" d="M19.1,16.2v1.6a1.37,1.37,0,0,1,1.4,1.4h1.6A3,3,0,0,0,19.1,16.2Z" transform="translate(-6.6 -6.9)"/><path class="a" d="M19.1,13.1a6.12,6.12,0,0,1,6.1,6.1h1.6a7.6,7.6,0,0,0-7.6-7.6v1.5Z" transform="translate(-6.6 -6.9)"/></svg>