<?xml version="1.0" encoding="utf-8"?>
<!-- Generator: Adobe Illustrator 21.0.2, SVG Export Plug-In . SVG Version: 6.00 Build 0)  -->
<svg version="1.1" id="mail_1_" xmlns="http://www.w3.org/2000/svg" xmlns:xlink="http://www.w3.org/1999/xlink" x="0px" y="0px"
	 viewBox="0 0 38 38" style="enable-background:new 0 0 38 38;" xml:space="preserve">
<style type="text/css">
	.st0{fill:#CCCCCC;}
</style>
<path id="mail-icon" class="st0" d="M31,8.5H7c-2.2,0-4,1.8-4,4v13c0,2.2,1.8,4,4,4h24c2.2,0,4-1.8,4-4v-13C35,10.3,33.2,8.5,31,8.5
	z M5,13.8l7,5.2l-7,5.2V13.8z M33,25.5c0,1.1-0.9,2-2,2H7c-1.1,0-2-0.9-2-2l7.8-5.9l4.4,3.3c0.5,0.4,1.2,0.6,1.8,0.6
	c0.6,0,1.3-0.2,1.8-0.6l4.4-3.3L33,25.5L33,25.5z M33,24.2L26,19l7-5.2V24.2z M20.2,22.1c-0.4,0.3-0.8,0.4-1.2,0.4
	c-0.4,0-0.9-0.1-1.2-0.4L13.7,19l-0.8-0.6L5,12.5l0,0c0-1.1,0.9-2,2-2h24c1.1,0,2,0.9,2,2L20.2,22.1z"/>
</svg>
