<svg xmlns="http://www.w3.org/2000/svg" viewBox="0 0 32 21"><defs><style>.a{fill:#ccc;}</style></defs><title>icon-mail</title><path class="a" d="M31,8.5H7a4,4,0,0,0-4,4v13a4,4,0,0,0,4,4H31a4,4,0,0,0,4-4v-13A4,4,0,0,0,31,8.5ZM5,13.8,12,19,5,24.2ZM33,25.5a2,2,0,0,1-2,2H7a2,2,0,0,1-2-2l7.8-5.9,4.4,3.3a3,3,0,0,0,3.6,0l4.4-3.3L33,25.5Zm0-1.3L26,19l7-5.2ZM20.2,22.1a1.92,1.92,0,0,1-1.2.4,1.75,1.75,0,0,1-1.2-.4L13.7,19l-.8-.6L5,12.5H5a2,2,0,0,1,2-2H31a2,2,0,0,1,2,2Z" transform="translate(-3 -8.5)"/></svg>