<?xml version="1.0" encoding="utf-8"?>
<!-- Generator: Adobe Illustrator 21.0.2, SVG Export Plug-In . SVG Version: 6.00 Build 0)  -->
<svg version="1.1" id="phone" xmlns="http://www.w3.org/2000/svg" xmlns:xlink="http://www.w3.org/1999/xlink" x="0px" y="0px"
	 viewBox="0 0 38 38" style="enable-background:new 0 0 38 38;" xml:space="preserve">
<style type="text/css">
	.st0{fill:#CCCCCC;}
</style>
<path class="st0" d="M23.9,31.2c-0.4,0-0.7,0-1.1,0c-4.9-0.6-8.5-2.9-11.1-5.8S7,18.7,6.6,13.7c0-0.5,0-0.9,0-1.4
	c0.1-0.9,0.5-1.6,1.1-2.1c0.7-0.7,1.6-1.5,2.5-1.6c0.7,0,1.8,0.5,2.2,1.1c0.4,0.5,0.6,1.6,0.8,2.4c0.2,0.8,0.6,1.9,0.5,2.7
	c-0.2,1.2-1.8,1.7-2.2,2.6c1.6,3.7,4.1,6.5,7.5,8.3c0.8-0.5,1.6-1.9,2.8-1.9c0.4,0,1,0.2,1.4,0.3c0.5,0.1,0.9,0.3,1.3,0.5
	c0.7,0.3,2,0.6,2.4,1.2s0.7,1.6,0.6,2.2C27.2,29.3,25.1,30.7,23.9,31.2z"/>
<path class="st0" d="M19.1,8.4c5.9,0,10.8,4.8,10.8,10.8h1.5c0-6.8-5.5-12.3-12.3-12.3C19.1,6.9,19.1,8.4,19.1,8.4z"/>
<path class="st0" d="M19.1,16.2v1.6c0.8,0,1.4,0.6,1.4,1.4h1.6C22.1,17.5,20.8,16.2,19.1,16.2z"/>
<path class="st0" d="M19.1,13.1c3.3,0,6.1,2.7,6.1,6.1h1.6c0-4.2-3.4-7.6-7.6-7.6v1.5H19.1z"/>
</svg>
