
<svg width="102" height="34" xmlns="http://www.w3.org/2000/svg" viewBox="0 0 102 34">
<g>
  <path d="M5,31.2c0-4.1-0.3-8.2-0.4-12.3c0-0.4,0-0.8,0-1.2c0.1,0.1,0.1,0.3,0.2,0.4c0.6,1.6,1.3,3.2,2.2,4.6
		c0.9,1.5,1.3,3.1,1.8,4.7c-0.2,0.2-0.3,0.5-0.2,0.7c0,0.2,0.1,0.3,0.3,0.4c0.6,0.5,1.8,0.3,2.5,0c0.3-0.1,0.6-0.3,0.8-0.4
		c0.3-0.2,0.9-0.7,0.7-1.2c0-0.1-0.1-0.2-0.1-0.3c0.5-1.3,0.7-2.6,1-3.9c0.3-1.4,0.8-2.8,1.3-4.1c0.1,0.6,0.1,1.2,0.2,1.8
		c0.2,2.5,0,5.1,0,7.6c0,0.8,0.1,1.6,0.2,2.5c0.1,0.3,0.4,1.8,0.3,1.9c-0.6,0.6-0.4,1.3,0.4,1.4c0.9,0.2,2.1-0.1,2.8-0.7
		c1.2-1.1,0.6-2.8,0.4-4.2c-0.5-2.3,0.1-5,0-7.3c-0.1-2.7-0.5-5.3-0.5-8c0-2.2,0.4-4.4-0.4-6.5c0-0.2,0.1-0.5,0.1-0.7
		c0.2-1-3.3-0.5-3.8,0.5c-0.3,0.3-0.5,0.6-0.4,1c0,0.1,0.1,0.2,0.1,0.3c-0.7,3.2-1.6,6.3-2.6,9.4c-0.4,1.2-0.9,2.3-1.3,3.5
		c-0.6-1.1-1.2-2.2-1.6-3.4C7.4,14,6.2,10.6,4.5,7.3c0.2-1.5-3.2-1.4-3.9,0c-0.8,1.7-0.7,3.4-0.4,5.2c0.3,2,0.4,4,0.4,6.1
		c0,4,0.4,7.9,0.4,11.9c-0.4,0.4-0.5,0.9-0.1,1.4c0.2,0.2,0.4,0.4,0.6,0.5C2.4,33.2,5,32.5,5,31.2z"/>
  <path d="M26.7,9.4c-0.1-0.7-4.1,0.1-3.9,1c0.3,2.1,0.2,4.2,0.2,6.3c0,2,0.5,3.9,0.7,5.9c0.3,2.1-0.1,4.2,0.2,6.2
		c0.1,1,0.8,2.7,0.1,3.6c-0.4,0.5,1.5,0.3,1.6,0.3c0.8-0.1,1.8-0.4,2.3-1c0.7-0.8,0.2-2.4,0.1-3.3c-0.3-2.1-0.1-4.2-0.2-6.3
		c-0.1-2-0.8-3.9-0.8-5.9C26.8,14,27,11.7,26.7,9.4z"/>
  <path d="M30.4,17.3c1.1,3,5.5,1.6,7.8,1.7c3.9,0.3,2.7,5.5,2.8,7.9c0,1.3,1.2,3.4,0.2,4.5c-0.6,0.7-2,0.7-2.8,0.8
		c-0.8,0.1-2.2,0.3-2.8-0.5c-1-1.4,0.1-3.8-0.1-5.4c-0.1-0.9-4.1-0.1-3.9,1c0.3,2.6-1.4,6.1,2.4,6.6c2.5,0.3,5.2-0.2,7.5-0.9
		c1.2-0.4,2.3-0.9,3.3-1.8c1-0.9,0.7-2.3,0.4-3.5c-0.7-2.9,0.7-6.3-1.2-8.8c-2.1-2.8-5.9-0.8-8.6-1.5C34,16.9,34,15,34,13.9
		c0-1.4-0.1-2.7-0.3-4.1c-0.1-1.1,0-2.1,0.7-2.9c0.1-0.1,0.9-0.3,0.8-0.3c0.4-0.1,0.7-0.1,1.1-0.1c1.6-0.1,4.6,0.2,4,2.5
		c-0.3,1,3.6,0.4,3.9-0.6c1.2-4.6-7.3-3.7-9.7-3.1c-2.2,0.6-4.7,1.8-4.8,4.4c-0.1,1.2,0.3,2.4,0.3,3.6
		C30.2,14.6,29.9,15.9,30.4,17.3z"/>
  <path d="M47.6,19.5c-0.1,2.1-0.2,4.3-0.3,6.4c0,1.1,0.2,2.2,0.3,3.3c0.1,1,0.5,2.3,0.2,3.3c-0.2,0.8,3.6,0.3,3.9-0.7
		c0.5-1.8-0.2-4-0.4-5.8c-0.2-1.7,0-3.5,0.1-5.2c2-0.1,4.1-0.3,6.1,0c0.1,1.4,0.2,2.8,0.3,4.1C58,26,58,27.1,58,28.3
		c0,1,0.1,2.5-0.2,3.5c-0.8,2.1,3.2,1.9,3.7,0.4c0.7-1.9,0.5-4.2,0.4-6.2c-0.2-2.4-0.5-4.9-0.6-7.3c-0.1-3.8-0.7-7.5-0.7-11.3
		c0-2-4-1.3-4,0.3c0,3.6,0.5,7.2,0.7,10.7c0,0.1,0,0.1,0,0.2c-2,0-3.9,0.2-5.9,0.2c0.2-4.6-0.6-9.2-0.4-13.8c0-0.6-3.9-0.1-3.9,1
		C47,10.6,47.8,15,47.6,19.5z"/>
  <path d="M64.4,25.9c-0.3,0.3-0.2,0.5,0.1,0.6c0,1.7-0.1,3.5-0.2,5.2c-0.5,0.7,0.5,1.1,1.1,1.1c0,0,0.1,0,0.1,0
		c0.7,0,2.6-0.3,2.7-1.4c0.2-2.1,0.3-4.2,0.2-6.3c1.6-1.7,2.9-3.6,4.1-5.6c0.8,1.5,1.5,3,2,4.6c0.9,2.7,2.3,5.3,3.1,8
		c0.5,1.8,4.5,0.7,3.9-1c-0.8-2.7-2.2-5.3-3.1-8c-0.9-2.8-2.4-5.2-3.6-7.8c1-1.9,2-3.9,2.9-5.9c0.8-1.8,1.5-3.8,3.1-5.1
		c0.6-0.4,0.6-0.9-0.3-0.9c-0.9-0.1-2.1,0.2-2.8,0.7c-1.5,1.2-2.4,2.6-3.2,4.3c-0.9,2-1.9,4.1-2.9,6.1c-0.1,0.1-0.1,0.3-0.2,0.4
		c-0.5,0.3-0.8,0.8-0.6,1.3c-0.8,1.6-1.6,3.1-2.5,4.6c-0.3-5.5-1-11-1.2-16.6c0-1.3-4-0.5-3.9,1.1C63.4,12.1,64.4,18.9,64.4,25.9
		C64.4,25.8,64.4,25.8,64.4,25.9z"/>
  <path d="M102,18.5c-0.2-0.8-1.4-0.8-2.3-0.8c0-0.3,0-0.7,0-1c-0.1-2.7-0.2-5.4-0.4-8c-0.2-2.5-1.6-3.3-4-3.2
		C92.9,5.5,90,6,87.8,6.8c-2.6,1-4.1,2.9-4.6,5.7c-0.6,3,0.2,6.2,0.4,9.2c0.2,3.5,0.1,7,0.1,10.5c0,0.6,3.9,0,3.9-1
		c0-2.8,0-5.5,0-8.3c0-0.8-0.1-1.6-0.1-2.4c1.4-0.6,3.7,0,5.1,0.1c1.1,0.1,2.2-0.2,3.3-0.3c0,2.3,0.1,4.6,0.2,6.9
		c0.1,1.2,0.5,3.5-0.4,4.5c-0.4,0.5,1.5,0.3,1.6,0.3c0.8-0.1,1.8-0.4,2.3-1c1-1.1,0.5-3.8,0.4-5.1c-0.1-1.9-0.1-3.8-0.1-5.7
		C100.9,20,102.2,19.3,102,18.5z M94,18.3c-2.3-0.1-4.6-0.4-6.7,0c-0.1-1.2-0.2-2.5-0.3-3.7c-0.2-2.3,0.1-5.6,2.3-7
		c0.6-0.4,1.7-0.3,2.4-0.4c1-0.2,2-0.4,2.8,0.2c1.2,0.8,0.9,3.7,0.9,4.9c0,2,0.2,4,0.3,6C95.2,18.3,94.6,18.3,94,18.3z"/>
  <path d="M22.3,4.9c-0.1,0.2,0,0.4,0.1,0.6c0,0,0,0.1,0,0.1c0,0.1,0,0.2,0,0.3c0.1,0.2,0.2,0.4,0.4,0.5c0.4,0.2,0.9,0.3,1.3,0.2
		c0.5,0,1.1-0.2,1.5-0.5c0.1-0.1,0.2-0.1,0.3-0.2c0.5-0.3,1-0.8,0.7-1.4c-0.5-1.1-0.4-2.2-0.4-3.4c0-1-1-1.2-1.8-1.2
		c-0.7,0.1-2.2,0.6-2.2,1.5c0,1-0.1,2,0.1,3C22.3,4.6,22.3,4.8,22.3,4.9z"/>
</svg>
